<?xml version="1.0" encoding="UTF-8"?>
<svg version="1.1" viewBox="0 0 1280 1260" width="1280" height="1280" xmlns="http://www.w3.org/2000/svg">
<path transform="translate(193)" d="m0 0h30l37 3 35 5 33 7 35 10 32 12 26 12 23 12 18 11 19 13 12 9 16 13 3 1 42-5 35-3 39-2h66l39 2 17 1 15-12 17-12 19-12 25-14 28-13 35-13 24-7 28-7 35-6 37-4 15-1h31v157l-4 1-38 1v8l6 2 26 13 17 10 20 13 16 12 13 11 10 9 11 11 9 11 11 15 10 18 6 15 5 19-1 3-11-14-5-5v-2h-2l-6-7-8-7-9-8-20-15-19-12-21-12-26-13-31-13-1 448h-230v-386l-5 5-13 20-13 23-11 22-11 27-7 19-10 35-6 25-7 40-4 36-1 10h-146l-2-18-4-33-7-38-9-36-12-36-10-25-11-24-13-23-10-16-1 373h-230v-354l-5 5-11 15-10 18-7 19-3 12-1 7v29l4 18 6 17 9 17 12 17 3 5-5-2-17-13-13-11-13-12-11-12-14-19-10-17-7-17-4-14-2-10-1-10v-16l3-21 5-17 11-23 8-12 10-13 11-12 16-16 11-9 16-12 8-5 1-41-46-2-5-1zm461 168-42 3-37 4 1 4 10 13 17 26 9 15 13 23h2l12-22 14-23 13-19 9-12 8-11v-1z" fill="#0C7A92"/>
<path transform="translate(35,727)" d="m0 0h83l18 34 14 27 12 22 15 29 2 3 8-14 13-25 12-22 16-31 10-19 3-4h82l1 1v232h-71v-153h-2l-2 6-21 42-12 23-8 16-6 11h-50l-32-64-10-19-7-15-1 153h-67z" fill="#0C7A92"/>
<path transform="translate(701,727)" d="m0 0h85l10 13 12 16 16 21 14 19 18 24 14 19 10 13 4 6 2 1v-132h65v233h-69l-8-10-26-36-14-19-13-18-14-19-13-18-14-19-13-18-1 157h-65z" fill="#0C7A92"/>
<path transform="translate(390,727)" d="m0 0h71l1 155 4 16 7 11 9 6 13 4 7 1h20l15-3 10-5 6-5 7-14 2-11 1-155h71v163l-4 17-5 11-7 11-12 12-11 7-14 7-16 5-23 4-10 1h-40l-23-3-21-5-18-8-13-9-12-12-8-14-5-13-2-10-1-11v-152z" fill="#0C7A92"/>
<path transform="translate(1092,727)" d="m0 0h82l16 36 15 35 14 32 34 78 13 30 9 21v1h-74l-13-32-5-13v-2l-102 1-14 35-5 11h-71l1-5 14-32 26-60 18-41 16-37 17-39 8-18zm39 61-13 32-20 50v1h67l-1-5-25-62-6-15z" fill="#0C7A92"/>
<path transform="translate(297,170)" d="m0 0 8 1 30 10 23 10 24 13 16 11v3l-27 11-24 11-20 10-25 15-17 12-10 8-11 9-13 13-7 8-5 5-11 15-10 18-7 19-3 12-1 7v29l4 18 6 17 9 17 12 17 3 5-5-2-17-13-13-11-13-12-11-12-14-19-10-17-7-17-4-14-2-10-1-10v-16l3-21 5-17 11-23 8-12 10-13 11-12 16-16 11-9 16-12 15-10 15-9 22-12z" fill="#F7931E"/>
<path transform="translate(225,994)" d="m0 0h36l20 3 15 4 15 6 5 3-2 5-10 13-3 4-5-1-20-8-18-4h-35l-19 4-15 6-11 6-12 11-6 7-6 10-4 11-2 11v20l3 14 4 10 7 10 6 7 12 9 17 8 14 4 14 2h30l20-4 15-7 1-45h-39v-23h78v84l-14 7-21 6-20 4-27 3h-30l-18-2-22-5-20-8-13-8-10-8-10-10-9-14-5-11-4-15-1-7v-23l4-18 5-11 7-12 11-12 9-8 14-9 19-9 17-5 23-4z" fill="#F7931E"/>
<path transform="translate(1045,1047)" d="m0 0h24l21 3 16 5 14 7 10 8 8 9 8 16 3 15v19l-3 14-8 16-12 13-10 7-12 6-17 5-21 3h-24l-19-3-13-4-5-2v61h-37v-196h37l1 10 15-7 16-4zm-10 22-15 4-10 4-5 3v82l10 5 11 3 6 1h24l17-3 11-4 10-6 8-8 5-10 3-12v-18l-3-12-4-8-7-8-10-6-11-4-17-3z" fill="#F7931E"/>
<path transform="translate(606,1047)" d="m0 0h27l20 3 16 5 14 7 9 7 8 8 7 11 4 11 2 11v19l-3 14-4 10-8 11-10 10-13 8-15 6-18 4-10 1h-26l-21-3-18-6-13-7-12-11-7-8-6-12-3-11-1-7v-17l4-16 6-12 11-12 8-7 10-6 19-7 14-3zm3 21-16 4-10 6-8 7-7 11-4 16v17l4 16 5 9 5 6 11 7 13 4 6 1h21l16-4 9-5 10-9 5-8 4-12 1-6v-17l-3-14-5-10-8-9-14-7-14-3z" fill="#F7931E"/>
<path transform="translate(628,98)" d="m0 0h66l39 2 13 1 3 2-14 12-15 14-16 16-7 8-13 15-47 2-46 4-17 2-7-8-9-11-22-24-10-10-8-7-7-6 1-2 42-5 35-3z" fill="#F7931E"/>
<path transform="translate(750,1049)" d="m0 0h37l1 99 4 9 5 6 8 4 12 3h22l17-4 14-7 8-7 2-3 1-100h37v141h-37l-1-17-9 7-16 7-18 5-8 1h-21l-19-3-13-5-10-6-8-8-7-14-1-5z" fill="#F7931E"/>
<path transform="translate(1e3 160)" d="m0 0 13 5 34 17 17 10 20 13 16 12 13 11 10 9 11 11 9 11 11 15 10 18 6 15 5 19-1 3-11-14-5-5v-2h-2l-6-7-8-7-9-8-20-15-19-12-21-12-26-13-31-13-31-11-41-12-24-6-18-4 3-3 23-9 28-8 24-5z" fill="#F7931E"/>
<path transform="translate(473,1047)" d="m0 0h22l17 2-1 5-13 20-5-1-11-3h-18l-13 4-10 6-7 6-6 10-2 6-1 88h-38v-141h38l1 21 4-5 11-8 13-6 12-3z" fill="#F7931E"/>
<path transform="translate(241,494)" d="m0 0" fill="#F7931E"/>
</svg>
